<svg xmlns="http://www.w3.org/2000/svg" xmlns:xlink="http://www.w3.org/1999/xlink" viewBox="0,0,256,256" width="96px" height="96px"><g fill="#ffffff" fill-rule="nonzero" stroke="none" stroke-width="1" stroke-linecap="butt" stroke-linejoin="miter" stroke-miterlimit="10" stroke-dasharray="" stroke-dashoffset="0" font-family="none" font-weight="none" font-size="none" text-anchor="none" style="mix-blend-mode: normal"><g transform="scale(4,4)"><path d="M32,10c-12.15,0 -22,9.85 -22,22c0,12.15 9.85,22 22,22c12.15,0 22,-9.85 22,-22c0,-12.15 -9.85,-22 -22,-22zM32,14c9.941,0 18,8.059 18,18c0,9.941 -8.059,18 -18,18c-9.941,0 -18,-8.059 -18,-18c0,-9.941 8.059,-18 18,-18zM32,21c-1.657,0 -3,1.343 -3,3c0,1.657 1.343,3 3,3c1.657,0 3,-1.343 3,-3c0,-1.657 -1.343,-3 -3,-3zM32,30c-1.105,0 -2,0.896 -2,2v10c0,1.104 0.895,2 2,2c1.105,0 2,-0.896 2,-2v-10c0,-1.104 -0.895,-2 -2,-2z"></path></g></g></svg>